<svg width="50" height="50" viewBox="0 0 20 20" xmlns="http://www.w3.org/2000/svg" transform="scale(-1 1)">
  <path d="M18.036 11.374 15.013 8.35a4.9 4.9 0 0 0 .718-2.568c0-2.733-2.369-5.101-5.102-5.101A4.95 4.95 0 0 0 5.68 5.63c0 2.732 2.369 5.101 5.102 5.101a4.9 4.9 0 0 0 2.492-.675l3.039 3.04a.76.76 0 0 0 1.077 0l.754-.754c.297-.296.189-.672-.108-.968M7.203 5.63a3.424 3.424 0 0 1 3.426-3.427c1.893 0 3.579 1.686 3.579 3.58a3.427 3.427 0 0 1-3.426 3.426c-1.893-.001-3.579-1.687-3.579-3.58"/>
  <rect x="2" y="11" width="8" height="8" rx="2" ry="2"/>
  <path d="M3 15.111a.385.385 0 0 1 0-.543l1.92-1.92a.385.385 0 0 1 .544.543L4.2 14.456h4.448a.384.384 0 1 1 0 .768H4.2l1.264 1.265a.385.385 0 0 1-.543.543z" fill="#fff" transform="rotate(270) translate(-1,-9)" transform-origin="center"/>
</svg>
