<svg width="50" height="50" viewBox="0 0 20 20" xmlns="http://www.w3.org/2000/svg" transform="scale(-1 1)">
  <path d="m19.054 16.56-4.535-4.534a7.4 7.4 0 0 0 1.078-3.852c0-4.1-3.553-7.653-7.654-7.653A7.42 7.42 0 0 0 .52 7.944c0 4.1 3.553 7.653 7.652 7.653a7.4 7.4 0 0 0 3.738-1.013l4.56 4.561a1.144 1.144 0 0 0 1.614 0l1.132-1.131c.445-.446.283-1.008-.162-1.454M2.804 7.944a5.136 5.136 0 0 1 5.14-5.14c2.838 0 5.368 2.53 5.368 5.37a5.14 5.14 0 0 1-5.14 5.14c-2.839-.002-5.367-2.532-5.367-5.37"/>
  <rect x="4.5" y="4.5" width="7" height="7" rx="2" ry="2"/>
</svg>
